<svg xmlns="http://www.w3.org/2000/svg" viewBox="0 0 41.55 12.76"><defs><style>.cls-1{fill:#323232;}.cls-2{fill:#1b519e;}.cls-3{fill:#0086ff;}.cls-4{fill:#32c0f9;}</style></defs><title>자산 1</title><g id="레이어_2" data-name="레이어 2"><g id="Layer_1" data-name="Layer 1"><path class="cls-1" d="M1.86,11.2a.81.81,0,0,0,.09.34.62.62,0,0,0,.57.25.88.88,0,0,0,.33-.06.38.38,0,0,0,.29-.37A.32.32,0,0,0,3,11.07a1.33,1.33,0,0,0-.38-.14l-.33-.08a1.5,1.5,0,0,1-.45-.16.53.53,0,0,1-.22-.46.71.71,0,0,1,.22-.55.9.9,0,0,1,.64-.21,1.12,1.12,0,0,1,.64.18.71.71,0,0,1,.26.6H3.08A.59.59,0,0,0,3,10a.56.56,0,0,0-.49-.19.57.57,0,0,0-.41.12.41.41,0,0,0-.13.29.27.27,0,0,0,.15.26,2,2,0,0,0,.44.14l.33.08a1.25,1.25,0,0,1,.38.15.71.71,0,0,1-.07,1.09,1.24,1.24,0,0,1-.67.18,1,1,0,0,1-.71-.24.76.76,0,0,1-.24-.63Z"/><path class="cls-1" d="M5.2,10.38a.89.89,0,0,1,.24.68,1.18,1.18,0,0,1-.21.72.76.76,0,0,1-.66.28A.72.72,0,0,1,4,11.81a1,1,0,0,1-.22-.67A1.1,1.1,0,0,1,4,10.41a.79.79,0,0,1,.61-.26A.8.8,0,0,1,5.2,10.38ZM5,11.57a1.18,1.18,0,0,0,.11-.5A.93.93,0,0,0,5,10.66a.44.44,0,0,0-.43-.25.42.42,0,0,0-.4.21.92.92,0,0,0-.13.51.82.82,0,0,0,.13.48.42.42,0,0,0,.39.19A.41.41,0,0,0,5,11.57Z"/><path class="cls-1" d="M5.82,9.53h.3V12h-.3Z"/><path class="cls-1" d="M7.54,10.91a.15.15,0,0,0,.13-.09.21.21,0,0,0,0-.12.25.25,0,0,0-.11-.22.58.58,0,0,0-.32-.07.37.37,0,0,0-.33.13.37.37,0,0,0-.07.21H6.58a.55.55,0,0,1,.22-.47,1,1,0,0,1,1,0,.43.43,0,0,1,.2.38v1a.12.12,0,0,0,0,.07s0,0,.08,0h.1V12l-.11,0H8a.25.25,0,0,1-.23-.11.43.43,0,0,1,0-.16.8.8,0,0,1-.26.21.85.85,0,0,1-.38.09.56.56,0,0,1-.41-.15.51.51,0,0,1-.16-.39.49.49,0,0,1,.15-.38A.76.76,0,0,1,7.05,11Zm-.64.81a.36.36,0,0,0,.23.08.7.7,0,0,0,.31-.07.44.44,0,0,0,.25-.4v-.25a.35.35,0,0,1-.14.06l-.18,0-.18,0a.68.68,0,0,0-.25.07.26.26,0,0,0-.14.25A.25.25,0,0,0,6.9,11.72Z"/><path class="cls-1" d="M8.49,10.2h.29v.31A.59.59,0,0,1,9,10.29a.45.45,0,0,1,.32-.13h.1v.32h-.1a.45.45,0,0,0-.35.14A.52.52,0,0,0,8.8,11v1H8.49Z"/><path class="cls-1" d="M10.7,9.53H11V12H10.7Z"/><path class="cls-1" d="M11.54,10.2h.29v.25a.69.69,0,0,1,.27-.22.68.68,0,0,1,.32-.07.52.52,0,0,1,.51.26,1,1,0,0,1,.08.42V12H12.7V10.86a.5.5,0,0,0,0-.26.29.29,0,0,0-.29-.17l-.18,0a.46.46,0,0,0-.31.33,1,1,0,0,0,0,.27V12h-.3Z"/><path class="cls-1" d="M13.51,9.7h.31v.5h.29v.24h-.29v1.18a.15.15,0,0,0,.06.13h.23V12L14,12h-.12a.34.34,0,0,1-.29-.11.51.51,0,0,1-.08-.28v-1.2h-.24V10.2h.24Z"/><path class="cls-1" d="M15.52,10.25a.71.71,0,0,1,.28.23,1,1,0,0,1,.11.32,1.79,1.79,0,0,1,0,.39H14.63a.79.79,0,0,0,.13.44.4.4,0,0,0,.37.17.48.48,0,0,0,.38-.16.53.53,0,0,0,.11-.21h.3a.74.74,0,0,1-.08.22,1.15,1.15,0,0,1-.15.2.66.66,0,0,1-.34.18.88.88,0,0,1-.24,0,.76.76,0,0,1-.57-.24,1,1,0,0,1-.23-.69,1.05,1.05,0,0,1,.23-.7.78.78,0,0,1,.61-.27A.81.81,0,0,1,15.52,10.25Zm.11.7a.82.82,0,0,0-.08-.31.44.44,0,0,0-.42-.22.45.45,0,0,0-.34.15.56.56,0,0,0-.15.38Z"/><path class="cls-1" d="M17.32,10.27a.94.94,0,0,1,.18.17v-.23h.28v1.64a1.3,1.3,0,0,1-.1.54.73.73,0,0,1-.71.37.94.94,0,0,1-.49-.13.53.53,0,0,1-.22-.41h.31a.37.37,0,0,0,.08.19.5.5,0,0,0,.33.1.44.44,0,0,0,.45-.25,1.48,1.48,0,0,0,.06-.51.59.59,0,0,1-.22.2.69.69,0,0,1-.34.07.73.73,0,0,1-.51-.21,1,1,0,0,1-.22-.69,1,1,0,0,1,.23-.7.66.66,0,0,1,.53-.25A.61.61,0,0,1,17.32,10.27Zm0,.32a.46.46,0,0,0-.35-.16.42.42,0,0,0-.43.3,1.22,1.22,0,0,0-.07.42.74.74,0,0,0,.13.46.38.38,0,0,0,.33.16.46.46,0,0,0,.45-.29.93.93,0,0,0,.08-.39A.78.78,0,0,0,17.36,10.59Z"/><path class="cls-1" d="M18.25,10.2h.28v.31a.64.64,0,0,1,.18-.22.42.42,0,0,1,.31-.13h.1v.32H19a.45.45,0,0,0-.35.14.52.52,0,0,0-.12.34v1h-.3Z"/><path class="cls-1" d="M20.35,10.91a.18.18,0,0,0,.14-.09.37.37,0,0,0,0-.12.25.25,0,0,0-.11-.22.58.58,0,0,0-.32-.07.37.37,0,0,0-.33.13.46.46,0,0,0-.08.21h-.28a.55.55,0,0,1,.22-.47,1,1,0,0,1,1,0,.41.41,0,0,1,.2.38v1a.12.12,0,0,0,0,.07s0,0,.08,0H21V12l-.11,0h-.1a.22.22,0,0,1-.22-.11.3.3,0,0,1-.06-.16.8.8,0,0,1-.26.21.85.85,0,0,1-.38.09.56.56,0,0,1-.41-.15.51.51,0,0,1-.16-.39.46.46,0,0,1,.16-.38.73.73,0,0,1,.4-.17Zm-.64.81a.36.36,0,0,0,.23.08.7.7,0,0,0,.31-.07.44.44,0,0,0,.25-.4v-.25a.35.35,0,0,1-.14.06l-.18,0-.18,0a.68.68,0,0,0-.25.07.26.26,0,0,0-.14.25A.25.25,0,0,0,19.71,11.72Z"/><path class="cls-1" d="M21.36,9.7h.3v.5H22v.24h-.29v1.18a.14.14,0,0,0,.07.13H22V12l-.11,0h-.12a.34.34,0,0,1-.29-.11.51.51,0,0,1-.07-.28v-1.2h-.25V10.2h.25Z"/><path class="cls-1" d="M22.25,9.53h.31v.34h-.31Zm0,.68h.31V12h-.31Z"/><path class="cls-1" d="M24.32,10.38a.89.89,0,0,1,.24.68,1.18,1.18,0,0,1-.21.72.76.76,0,0,1-.65.28.72.72,0,0,1-.59-.25,1,1,0,0,1-.22-.67,1.1,1.1,0,0,1,.23-.73.79.79,0,0,1,.62-.26A.78.78,0,0,1,24.32,10.38Zm-.19,1.19a1,1,0,0,0,.11-.5.93.93,0,0,0-.08-.41.44.44,0,0,0-.43-.25.42.42,0,0,0-.4.21,1,1,0,0,0-.13.51.9.9,0,0,0,.13.48.42.42,0,0,0,.39.19A.41.41,0,0,0,24.13,11.57Z"/><path class="cls-1" d="M24.93,10.2h.29v.25a.69.69,0,0,1,.27-.22.64.64,0,0,1,.31-.07.53.53,0,0,1,.52.26,1,1,0,0,1,.07.42V12h-.3V10.86A.63.63,0,0,0,26,10.6a.29.29,0,0,0-.29-.17l-.18,0a.46.46,0,0,0-.22.15.54.54,0,0,0-.1.18,1.87,1.87,0,0,0,0,.27V12h-.3Z"/><path class="cls-1" d="M27.85,9.53h1a.94.94,0,0,1,.78.36,1.38,1.38,0,0,1,.24.83,1.61,1.61,0,0,1-.14.71.9.9,0,0,1-.88.57h-1Zm.92,2.18a.79.79,0,0,0,.28,0,.57.57,0,0,0,.31-.25A1,1,0,0,0,29.5,11a2.46,2.46,0,0,0,0-.26,1.22,1.22,0,0,0-.18-.71.63.63,0,0,0-.57-.25h-.58v1.89Z"/><path class="cls-1" d="M31.39,10.25a.71.71,0,0,1,.28.23,1.33,1.33,0,0,1,.12.32,3.25,3.25,0,0,1,0,.39H30.5a.79.79,0,0,0,.13.44.41.41,0,0,0,.37.17.48.48,0,0,0,.38-.16.53.53,0,0,0,.11-.21h.3a.74.74,0,0,1-.08.22.8.8,0,0,1-.15.2.66.66,0,0,1-.34.18.88.88,0,0,1-.24,0,.76.76,0,0,1-.57-.24,1,1,0,0,1-.23-.69,1.05,1.05,0,0,1,.23-.7.78.78,0,0,1,.61-.27A.81.81,0,0,1,31.39,10.25Zm.11.7a.82.82,0,0,0-.08-.31.44.44,0,0,0-.42-.22.45.45,0,0,0-.34.15.56.56,0,0,0-.15.38Z"/><path class="cls-1" d="M32.37,11.43a.44.44,0,0,0,.08.23.49.49,0,0,0,.41.15.6.6,0,0,0,.3-.07.26.26,0,0,0,.13-.23.21.21,0,0,0-.11-.18l-.26-.08-.24-.06a1.23,1.23,0,0,1-.35-.13.38.38,0,0,1-.2-.34.52.52,0,0,1,.19-.41.72.72,0,0,1,.5-.16.7.7,0,0,1,.6.24.56.56,0,0,1,.11.32h-.29a.31.31,0,0,0-.07-.18.48.48,0,0,0-.37-.12.41.41,0,0,0-.27.07.2.2,0,0,0-.09.17.22.22,0,0,0,.12.19,1.11,1.11,0,0,0,.2.07L33,11a1.41,1.41,0,0,1,.45.15.41.41,0,0,1,.18.37.53.53,0,0,1-.19.41.77.77,0,0,1-.56.18.75.75,0,0,1-.57-.19.66.66,0,0,1-.19-.45Z"/><path class="cls-1" d="M33.91,9.53h.31v.34h-.31Zm0,.68h.31V12h-.31Z"/><path class="cls-1" d="M35.68,10.27a.91.91,0,0,1,.17.17v-.23h.28v1.64a1.16,1.16,0,0,1-.1.54.73.73,0,0,1-.71.37.9.9,0,0,1-.48-.13.51.51,0,0,1-.23-.41h.31a.48.48,0,0,0,.09.19.47.47,0,0,0,.32.1.44.44,0,0,0,.45-.25,1.26,1.26,0,0,0,.06-.51.53.53,0,0,1-.22.2.62.62,0,0,1-.33.07.69.69,0,0,1-.51-.21.91.91,0,0,1-.22-.69,1,1,0,0,1,.22-.7.67.67,0,0,1,.53-.25A.66.66,0,0,1,35.68,10.27Zm0,.32a.48.48,0,0,0-.35-.16.44.44,0,0,0-.44.3,1.25,1.25,0,0,0-.06.42.74.74,0,0,0,.12.46.38.38,0,0,0,.33.16.47.47,0,0,0,.46-.29.94.94,0,0,0,.07-.39A.79.79,0,0,0,35.72,10.59Z"/><path class="cls-1" d="M36.59,10.2h.29v.25a.69.69,0,0,1,.27-.22.66.66,0,0,1,.32-.07.53.53,0,0,1,.51.26,1,1,0,0,1,.08.42V12h-.31V10.86a.63.63,0,0,0,0-.26.29.29,0,0,0-.29-.17l-.18,0a.43.43,0,0,0-.21.15.33.33,0,0,0-.1.18,1,1,0,0,0,0,.27V12h-.3Z"/><path class="cls-1" d="M30.2,0c1.27,0,1.93.76,1.93,2.09v.26H30.89V2c0-.6-.24-.82-.65-.82s-.66.22-.66.82.26,1.05,1.12,1.8a3.23,3.23,0,0,1,1.44,2.6,2,2,0,1,1-3.9,0V5.9h1.24v.6c0,.59.26.8.67.8s.68-.21.68-.8-.26-1.06-1.12-1.81a3.22,3.22,0,0,1-1.43-2.6C28.28.76,28.93,0,30.2,0Z"/><path class="cls-1" d="M32.75.09h1.31V8.41H32.75Z"/><path class="cls-1" d="M34.87.09h2.07c1.31,0,2,.73,2,2.06v4.2c0,1.33-.64,2.06-2,2.06H34.87Zm1.31,1.19V7.22h.74c.41,0,.66-.21.66-.81V2.09c0-.59-.25-.81-.66-.81Z"/><path class="cls-1" d="M39.61.09h.77V.32h-.26V1.69h-.25V.32h-.26Z"/><path class="cls-1" d="M41,1.23h0L41.2.09h.35v1.6h-.24V.55h0l-.17,1.14H40.9L40.71.56h0V1.69h-.22V.09h.35Z"/><rect class="cls-2" width="8.75" height="8.75"/><rect class="cls-3" x="8.75" width="8.75" height="8.75"/><rect class="cls-4" x="17.49" width="8.75" height="8.75"/></g></g></svg>